<?xml version="1.0" encoding="UTF-8" standalone="no"?>
<!DOCTYPE svg PUBLIC "-//W3C//DTD SVG 1.1//EN" "http://www.w3.org/Graphics/SVG/1.1/DTD/svg11.dtd">
<svg version="1.1" xmlns="http://www.w3.org/2000/svg" xmlns:xlink="http://www.w3.org/1999/xlink" preserveAspectRatio="xMidYMid meet" viewBox="0 0 640 640" width="640" height="640"><defs><path d="M40 320C124.25 404.63 195 480 320 480C444.88 480 536.75 384.5 600 321.75C535.25 248.25 443.5 160 320 160C217.63 160 137.88 221 40 320ZM208 320C208 257 258.25 205.88 320 205.88C381.75 205.88 432 257.13 432 320C432 383 381.75 434.13 320 434.13C258.25 434.13 208 382.88 208 320Z" id="a3W7eZCbvr"></path><path d="M329.5 254.13C326.38 253.63 323.25 253.38 320 253.38C284 253.38 254.63 283.25 254.63 320C254.63 356.75 284 386.63 320 386.63C356 386.63 385.38 356.75 385.38 320C385.38 317.13 385.13 314.25 384.88 311.38C378 316.75 369.5 320 360.13 320C337.88 320 320 302.13 320 280C320 270.13 323.63 261.13 329.5 254.13Z" id="e9EfZJVFz"></path><path d="M71.46 23.04L611.58 588.99L585.76 616.96L28.42 48.86L71.46 23.04Z" id="a4fXKjQCZN"></path><mask id="maska5znJDude" x="28.42" y="23.04" width="583.16" height="593.92" maskUnits="userSpaceOnUse"><rect x="28.42" y="23.04" width="583.16" height="593.92" fill="white"></rect><use xlink:href="#a4fXKjQCZN" opacity="1" fill="black"></use></mask></defs><g><g><g><use xlink:href="#a3W7eZCbvr" opacity="1" fill="#ff0000" fill-opacity="1"></use><g><use xlink:href="#a3W7eZCbvr" opacity="1" fill-opacity="0" stroke="#000000" stroke-width="1" stroke-opacity="0"></use></g></g><g><use xlink:href="#e9EfZJVFz" opacity="1" fill="#ff0000" fill-opacity="1"></use><g><use xlink:href="#e9EfZJVFz" opacity="1" fill-opacity="0" stroke="#000000" stroke-width="1" stroke-opacity="0"></use></g></g><g><g><filter id="shadow13479556" x="21.42" y="16.04" width="598.16" height="608.92" filterUnits="userSpaceOnUse" primitiveUnits="userSpaceOnUse"><feFlood></feFlood><feComposite in2="SourceAlpha" operator="in"></feComposite><feGaussianBlur stdDeviation="0"></feGaussianBlur><feOffset dx="1" dy="1" result="afterOffset"></feOffset><feFlood flood-color="#ffffff" flood-opacity="0.5"></feFlood><feComposite in2="afterOffset" operator="in"></feComposite><feMorphology operator="dilate" radius="1"></feMorphology><feComposite in2="SourceAlpha" operator="out"></feComposite></filter><path d="M71.46 23.04L611.58 588.99L585.76 616.96L28.42 48.86L71.46 23.04Z" id="bFhAmRk63" fill="white" fill-opacity="1" filter="url(#shadow13479556)"></path></g><use xlink:href="#a4fXKjQCZN" opacity="1" fill="#ff0000" fill-opacity="1"></use><g mask="url(#maska5znJDude)"><use xlink:href="#a4fXKjQCZN" opacity="1" fill-opacity="0" stroke="#ffffff" stroke-width="0" stroke-opacity="1"></use></g></g></g></g></svg>