<svg viewBox="0 0 12 16" fill="#A4A4A4" xmlns="http://www.w3.org/2000/svg"><path fill-rule="evenodd" clip-rule="evenodd" d="M5.13823 2.86189C4.87788 2.60154 4.45577 2.60154 4.19543 2.86189L1.52876 5.52855C1.26841 5.7889 1.26841 6.21101 1.52876 6.47136C1.78911 6.73171 2.21122 6.73171 2.47157 6.47136L4.00016 4.94277V12.6666C4.00016 13.0348 4.29864 13.3333 4.66683 13.3333C5.03502 13.3333 5.3335 13.0348 5.3335 12.6666V4.94277L6.86209 6.47136C7.12244 6.73171 7.54455 6.73171 7.8049 6.47136C8.06525 6.21101 8.06525 5.7889 7.8049 5.52855L5.13823 2.86189ZM12.0002 3.33329C12.0002 2.9651 11.7017 2.66663 11.3335 2.66663C10.9653 2.66663 10.6668 2.9651 10.6668 3.33329V11.0572L9.13823 9.52855C8.87788 9.26821 8.45577 9.26821 8.19543 9.52855C7.93508 9.7889 7.93508 10.211 8.19543 10.4714L10.8621 13.138C11.1224 13.3984 11.5446 13.3984 11.8049 13.138L14.4716 10.4714C14.7319 10.211 14.7319 9.7889 14.4716 9.52855C14.2112 9.26821 13.7891 9.26821 13.5288 9.52855L12.0002 11.0572V3.33329Z"></path></svg>