<?xml version="1.0" encoding="UTF-8" standalone="no"?>
<!DOCTYPE svg PUBLIC "-//W3C//DTD SVG 1.1//EN" "http://www.w3.org/Graphics/SVG/1.1/DTD/svg11.dtd">
<svg version="1.1" xmlns="http://www.w3.org/2000/svg" xmlns:xlink="http://www.w3.org/1999/xlink" preserveAspectRatio="xMidYMid meet" viewBox="0 0 640 640" width="640" height="640"><defs><path d="M75.01 49.98C78.76 49.98 108.76 49.98 112.51 49.98C126.31 50.02 137.47 61.21 137.47 75.01C137.47 100.51 137.47 304.49 137.47 329.98C137.47 343.78 126.27 355.01 112.51 355.01C108.76 355.01 78.76 355.01 75.01 355.01C61.22 355.01 49.98 343.81 49.98 330.02C49.98 313.01 49.98 228 49.98 74.98C57.46 58.33 65.8 50 75.01 49.98ZM112.51 404.99C120.64 404.99 128.51 403.71 135.84 401.28C144.07 414.09 185.21 478.16 259.26 593.47L275.36 616.1C276.19 616.94 276.64 617.41 276.74 617.5C290.81 631.95 310.14 640.07 330.3 640C371.77 639.95 405.34 606.3 405.29 564.84C405.28 556.6 403.91 548.43 401.25 540.64C401.21 540.54 401.04 540.04 400.74 539.14C400.31 538.29 400.08 537.82 400.03 537.73C396.1 529.73 391.9 521.38 387.46 512.54C376.26 490.21 357.76 453.41 354.98 442.34C356.8 429.22 374.3 421.25 386.78 421.25C403.23 421.25 534.82 421.25 551.26 421.25C590.58 421.18 622.43 389.33 622.5 350.02C622.5 337.06 618.98 324.58 612.51 313.73C629.87 300.24 640.01 279.48 640 257.5C640.01 235.03 629.57 213.82 611.74 200.13C617.82 189.57 621.15 177.5 621.15 164.99C621.15 137.89 605.86 114.3 583.36 102.27C587.71 93.2 589.98 83.28 590.02 73.22C590.02 30.78 559.94 0 518.5 0C494.02 0 298.23 0 273.76 0C259.95 0 248.75 11.2 248.75 25.01C248.75 38.82 259.95 50.02 273.76 50.02C273.76 50.02 273.76 50.02 273.76 50.02C298.23 50.02 494.02 50.02 518.5 50.02C537.89 50.02 540 66.24 540 73.22C540 83.52 531.3 89.15 528.61 90.62C514.59 98.34 512.51 109.47 512.51 115.39C512.51 131.3 526.24 143.74 543.74 143.74C544.31 143.74 548.81 143.74 549.38 143.74C561.26 143.6 571.01 153.11 571.17 164.99C571.17 172.45 567.01 179.49 560.32 183.33C560.2 183.39 559.25 183.9 559.14 183.97C548.1 189.95 542.5 198.53 542.5 209.47C542.5 218.91 548.8 235.2 572.42 236.48C581.95 236.99 590.02 246.62 590.02 257.5C590.02 267.1 583.23 275.74 573.89 278.11C558.85 281.92 548.74 293.73 548.74 307.49C548.74 314.34 551.3 324.19 563.26 332.51C572.9 339.25 575.25 352.51 568.51 362.14C564.57 367.78 558.14 371.17 551.26 371.23C534.82 371.23 403.23 371.23 386.78 371.23C348.7 371.23 306.56 398.3 304.86 442.02C304.86 442.11 304.86 442.88 304.86 442.98C304.86 458.02 315.84 481.34 342.78 534.98C343.94 537.29 353.18 555.8 354.34 558.11C358.11 571.41 350.39 585.24 337.1 589.02C328.86 591.36 319.99 589.32 313.6 583.62C312.76 582.44 308.56 576.55 300.99 565.95C225.73 448.74 183.91 383.62 175.55 370.59C183.36 358.5 187.51 344.41 187.49 330.02C187.49 304.51 187.49 100.48 187.49 74.98C187.44 33.59 153.9 0.05 112.51 0C108.76 0 78.76 0 75.01 0C33.6 0.03 0.04 33.6 0 75.01C0 100.51 0 304.49 0 329.98C0.04 371.39 33.6 404.96 75.01 404.99C75.01 404.99 108.76 404.99 112.51 404.99Z" id="e24QJ1BeRH"></path></defs><g><g><g><use xlink:href="#e24QJ1BeRH" opacity="1" fill="#fa4a43" fill-opacity="1"></use><g><use xlink:href="#e24QJ1BeRH" opacity="1" fill-opacity="0" stroke="#000000" stroke-width="1" stroke-opacity="0"></use></g></g></g></g></svg>