<?xml version="1.0" standalone="no"?>
<!DOCTYPE svg PUBLIC "-//W3C//DTD SVG 20010904//EN"
 "http://www.w3.org/TR/2001/REC-SVG-20010904/DTD/svg10.dtd">
<svg version="1.0" xmlns="http://www.w3.org/2000/svg"
 width="210.000000pt" height="210.000000pt" viewBox="0 0 210.000000 210.000000"
 preserveAspectRatio="xMidYMid meet">

<g transform="translate(0.000000,210.000000) scale(0.100000,-0.100000)" stroke="none">
<path d="M900 2043 c-230 -45 -390 -126 -548 -278 -142 -135 -235 -297 -284
-492 -33 -131 -31 -350 4 -483 50 -188 142 -344 280 -475 132 -127 253 -197
433 -251 83 -26 104 -28 265 -28 150 0 186 3 254 22 161 45 216 85 216 157 0
60 -55 115 -114 115 -14 0 -60 -12 -102 -26 -169 -56 -345 -55 -512 4 -106 38
-179 82 -268 165 -164 153 -247 342 -247 567 0 209 70 384 212 533 325 342
866 324 1165 -39 119 -144 181 -327 174 -514 -4 -120 -16 -153 -68 -188 -29
-20 -44 -23 -88 -20 -43 4 -59 11 -87 38 -56 54 -65 98 -65 307 0 145 -3 190
-15 213 -26 51 -99 75 -146 49 -16 -8 -25 -7 -38 5 -63 57 -230 96 -337 78
-131 -22 -269 -113 -331 -220 -79 -134 -84 -323 -12 -464 58 -113 200 -214
336 -238 117 -21 266 18 368 96 l35 26 37 -32 c153 -135 396 -121 536 29 65
69 95 139 108 248 25 217 -40 470 -171 664 -97 144 -279 293 -437 359 -135 57
-214 72 -378 75 -82 2 -161 1 -175 -2z m255 -794 c94 -44 148 -155 126 -255
-25 -111 -116 -184 -228 -184 -74 0 -129 25 -174 79 -78 90 -78 212 0 302 19
23 53 50 75 60 57 26 144 25 201 -2z"/>
</g>
</svg>
