<?xml version="1.0" encoding="UTF-8" standalone="no"?>
<!DOCTYPE svg PUBLIC "-//W3C//DTD SVG 1.1//EN" "http://www.w3.org/Graphics/SVG/1.1/DTD/svg11.dtd">
<svg version="1.1" xmlns="http://www.w3.org/2000/svg" xmlns:xlink="http://www.w3.org/1999/xlink" preserveAspectRatio="xMidYMid meet" viewBox="0 0 640 640" width="640" height="640"><defs><path d="M75.01 590.02C78.76 590.02 108.76 590.02 112.51 590.02C126.31 589.98 137.47 578.79 137.47 564.99C137.47 539.49 137.47 335.51 137.47 310.02C137.47 296.22 126.27 284.99 112.51 284.99C108.76 284.99 78.76 284.99 75.01 284.99C61.22 284.99 49.98 296.19 49.98 309.98C49.98 326.99 49.98 412 49.98 565.02C57.46 581.67 65.8 590 75.01 590.02ZM112.51 235.01C120.64 235.01 128.51 236.29 135.84 238.72C144.07 225.91 185.21 161.84 259.26 46.53L275.36 23.9C276.19 23.06 276.64 22.59 276.74 22.5C290.81 8.05 310.14 -0.07 330.3 0C371.77 0.05 405.34 33.7 405.29 75.16C405.28 83.4 403.91 91.57 401.25 99.36C401.21 99.46 401.04 99.96 400.74 100.86C400.31 101.71 400.08 102.18 400.03 102.27C396.1 110.27 391.9 118.62 387.46 127.46C376.26 149.79 357.76 186.59 354.98 197.66C356.8 210.78 374.3 218.75 386.78 218.75C403.23 218.75 534.82 218.75 551.26 218.75C590.58 218.82 622.43 250.67 622.5 289.98C622.5 302.94 618.98 315.42 612.51 326.27C629.87 339.76 640.01 360.52 640 382.5C640.01 404.97 629.57 426.18 611.74 439.87C617.82 450.43 621.15 462.5 621.15 475.01C621.15 502.11 605.86 525.7 583.36 537.73C587.71 546.8 589.98 556.72 590.02 566.78C590.02 609.22 559.94 640 518.5 640C494.02 640 298.23 640 273.76 640C259.95 640 248.75 628.8 248.75 614.99C248.75 601.18 259.95 589.98 273.76 589.98C273.76 589.98 273.76 589.98 273.76 589.98C298.23 589.98 494.02 589.98 518.5 589.98C537.89 589.98 540 573.76 540 566.78C540 556.48 531.3 550.85 528.61 549.38C514.59 541.66 512.51 530.53 512.51 524.61C512.51 508.7 526.24 496.26 543.74 496.26C544.31 496.26 548.81 496.26 549.38 496.26C561.26 496.4 571.01 486.89 571.17 475.01C571.17 467.55 567.01 460.51 560.32 456.67C560.2 456.61 559.25 456.1 559.14 456.03C548.1 450.05 542.5 441.47 542.5 430.53C542.5 421.09 548.8 404.8 572.42 403.52C581.95 403.01 590.02 393.38 590.02 382.5C590.02 372.9 583.23 364.26 573.89 361.89C558.85 358.08 548.74 346.27 548.74 332.51C548.74 325.66 551.3 315.81 563.26 307.49C572.9 300.75 575.25 287.49 568.51 277.85C564.57 272.22 558.14 268.83 551.26 268.77C534.82 268.77 403.23 268.77 386.78 268.77C348.7 268.77 306.56 241.7 304.86 197.98C304.86 197.89 304.86 197.12 304.86 197.02C304.86 181.98 315.84 158.66 342.78 105.02C343.94 102.71 353.18 84.2 354.34 81.89C358.11 68.59 350.39 54.76 337.1 50.98C328.86 48.64 319.99 50.68 313.6 56.38C312.76 57.56 308.56 63.45 300.99 74.05C225.73 191.26 183.91 256.38 175.55 269.41C183.36 281.5 187.51 295.59 187.49 309.98C187.49 335.49 187.49 539.52 187.49 565.02C187.44 606.41 153.9 639.95 112.51 640C108.76 640 78.76 640 75.01 640C33.6 639.96 0.04 606.4 0 564.99C0 539.49 0 335.51 0 310.02C0.04 268.6 33.6 235.04 75.01 235.01C75.01 235.01 108.76 235.01 112.51 235.01Z" id="c4tkwlNVaK"></path></defs><g><g><g><use xlink:href="#c4tkwlNVaK" opacity="1" fill="#31e85f" fill-opacity="1"></use><g><use xlink:href="#c4tkwlNVaK" opacity="1" fill-opacity="0" stroke="#000000" stroke-width="1" stroke-opacity="0"></use></g></g></g></g></svg>