<?xml version="1.0" standalone="no"?>
<!DOCTYPE svg PUBLIC "-//W3C//DTD SVG 20010904//EN"
 "http://www.w3.org/TR/2001/REC-SVG-20010904/DTD/svg10.dtd">
<svg version="1.0" xmlns="http://www.w3.org/2000/svg"
 width="150.000000pt" height="150.000000pt" viewBox="0 0 150.000000 150.000000"
 preserveAspectRatio="xMidYMid meet">

<g transform="translate(0.000000,150.000000) scale(0.100000,-0.100000)"
fill="currentColor" stroke="none">
<path d="M626 1490 c-121 -22 -248 -78 -338 -151 -256 -205 -351 -533 -243
-842 79 -226 277 -408 515 -473 81 -22 280 -25 360 -5 275 69 491 286 561 561
22 89 18 270 -9 364 -63 220 -224 407 -423 491 -35 15 -86 34 -114 42 -63 17
-244 25 -309 13z m334 -153 c180 -64 322 -210 381 -389 35 -106 35 -290 0
-396 -43 -131 -127 -241 -245 -320 -110 -74 -194 -97 -346 -97 -105 0 -137 4
-198 24 -79 26 -165 77 -231 136 -61 55 -134 171 -162 256 -21 64 -24 92 -24
209 1 128 2 139 33 215 75 186 222 319 416 377 95 28 277 21 376 -15z"/>
<path d="M685 1183 c-33 -9 -74 -43 -90 -73 -25 -48 -20 -182 10 -270 14 -40
30 -78 35 -86 6 -7 10 -34 8 -60 l-3 -48 -95 -36 c-163 -62 -180 -76 -180
-144 l0 -36 380 0 380 0 0 36 c0 68 -17 82 -180 144 l-95 36 -3 48 c-2 26 2
53 8 60 29 36 60 161 60 243 0 95 -13 129 -61 163 -31 23 -130 36 -174 23z"/>
</g>
</svg>
